<svg id="Layer_1" data-name="Layer 1" xmlns="http://www.w3.org/2000/svg" viewBox="0 0 80.49 46.26"><defs><style>.cls-1{fill:#bbbaba;}.cls-2{fill:#f9b234;}.cls-3{fill:#1d1d1b;}</style></defs><rect class="cls-1" x="51.27" y="7.46" width="24.72" height="2.88" rx="1.44"/><rect class="cls-1" x="51.27" y="36" width="24.72" height="2.88" rx="1.44"/><path class="cls-2" d="M154.15,202.3H110.52s-9,.45-9,8.19v18.09s-1,10.35,9,10.26,43.63,0,43.63,0V202.3Z" transform="translate(-101.47 -197.44)"/><rect class="cls-3" x="0.03" y="16.98" width="52.65" height="4.98"/><rect class="cls-3" x="0.03" y="23.82" width="52.65" height="4.98"/><circle class="cls-3" cx="29.92" cy="23.13" r="14.23"/><path class="cls-1" d="M176,207.78s2.91.1,2.94,2.65h3s.3-4.93-5.94-5.53" transform="translate(-101.47 -197.44)"/><path class="cls-1" d="M176,233.44s2.91-.1,2.94-2.65h3s.3,4.93-5.94,5.53" transform="translate(-101.47 -197.44)"/><rect class="cls-3" x="77.49" y="12.99" width="3" height="20.36"/><rect class="cls-3" x="10.41" width="12.5" height="4.86" rx="2.43"/><rect class="cls-3" x="10.41" y="41.4" width="12.5" height="4.86" rx="2.43"/><rect class="cls-3" x="37.9" y="41.4" width="12.5" height="4.86" rx="2.43"/><rect class="cls-3" x="37.9" width="12.5" height="4.86" rx="2.43"/></svg>